<?xml version="1.0" encoding="utf-8"?>
<!-- Generator: Adobe Illustrator 28.0.0, SVG Export Plug-In . SVG Version: 6.00 Build 0)  -->
<svg version="1.1" id="Ebene_1" xmlns="http://www.w3.org/2000/svg" xmlns:xlink="http://www.w3.org/1999/xlink" x="0px" y="0px"
	 viewBox="0 0 198.4 85" style="enable-background:new 0 0 198.4 85;" xml:space="preserve">
<style type="text/css">
	.st0{fill:#E40521;}
</style>
<g>
	<path d="M103.1,45c-0.9-0.6-2-0.8-3.3-0.8c-1.3,0-2.4,0.3-3.3,0.8c-0.9,0.6-1.6,1.3-2.1,2.3c-0.5,1-0.8,2.2-0.8,3.5
		c0,1.3,0.3,2.5,0.8,3.5c0.5,1,1.2,1.8,2.1,2.3c0.9,0.6,2,0.8,3.3,0.8c1.3,0,2.4-0.3,3.3-0.8s1.6-1.3,2.1-2.3c0.5-1,0.8-2.2,0.8-3.5
		c0-1.3-0.3-2.5-0.8-3.5C104.8,46.3,104.1,45.6,103.1,45z M102.6,53c-0.2,0.6-0.6,1.1-1,1.5c-0.5,0.4-1,0.6-1.7,0.6
		c-0.7,0-1.3-0.2-1.7-0.6c-0.5-0.4-0.8-0.9-1-1.5c-0.2-0.6-0.3-1.4-0.3-2.1c0-0.8,0.1-1.5,0.3-2.1c0.2-0.6,0.6-1.2,1-1.5
		c0.5-0.4,1-0.6,1.7-0.6c0.7,0,1.3,0.2,1.7,0.6c0.5,0.4,0.8,0.9,1,1.5c0.2,0.6,0.3,1.4,0.3,2.1C103,51.6,102.8,52.3,102.6,53z
		 M86.6,47.8l6.7,9.5h-3.8l-5.1-7.4l-1.9,2.3v5.1h-3.1V40h3.1v7.9h0.2l6.7-7.9h3.8L86.6,47.8z M88.4,28.1c0.3-0.4,0.4-0.8,0.4-1.3
		c0-0.4-0.1-0.8-0.4-1.1c-0.3-0.3-0.6-0.5-1.1-0.7c-0.5-0.2-1-0.4-1.6-0.5l-2-0.5c-1.4-0.4-2.5-0.9-3.4-1.7c-0.8-0.7-1.2-1.7-1.2-3
		c0-1,0.3-1.9,0.8-2.7c0.6-0.8,1.3-1.4,2.3-1.8c1-0.4,2-0.6,3.2-0.6c1.2,0,2.3,0.2,3.2,0.6c0.9,0.4,1.6,1,2.2,1.8
		c0.5,0.7,0.8,1.6,0.8,2.6h-3c-0.1-0.7-0.4-1.3-1-1.7c-0.6-0.4-1.3-0.6-2.3-0.6c-0.7,0-1.2,0.1-1.7,0.3c-0.5,0.2-0.8,0.5-1.1,0.8
		c-0.2,0.3-0.4,0.7-0.4,1.2c0,0.4,0.1,0.7,0.2,0.9c0.2,0.3,0.4,0.5,0.7,0.7c0.3,0.2,0.6,0.3,1,0.5c0.3,0.1,0.7,0.2,1.1,0.3l1.6,0.4
		c0.7,0.2,1.3,0.4,1.9,0.6c0.6,0.3,1.1,0.6,1.6,1c0.5,0.4,0.9,0.9,1.1,1.4c0.3,0.6,0.4,1.2,0.4,2c0,1-0.3,1.9-0.8,2.7
		c-0.5,0.8-1.3,1.4-2.2,1.8c-1,0.4-2.1,0.6-3.5,0.6c-1.3,0-2.5-0.2-3.5-0.6c-1-0.4-1.8-1-2.3-1.8c-0.6-0.8-0.9-1.8-0.9-2.9h3.1
		c0,0.6,0.2,1.1,0.6,1.5c0.3,0.4,0.7,0.7,1.3,0.9c0.5,0.2,1.1,0.3,1.8,0.3c0.7,0,1.3-0.1,1.8-0.3C87.7,28.7,88.1,28.4,88.4,28.1z
		 M110.1,30.9c0.3-0.3,0.6-0.6,0.8-1h0.1v1.8h2.9V23c0-0.9-0.2-1.6-0.5-2.1s-0.7-1-1.2-1.4c-0.5-0.3-1.1-0.6-1.7-0.7
		c-0.6-0.1-1.2-0.2-1.9-0.2c-0.9,0-1.7,0.1-2.5,0.4c-0.7,0.3-1.4,0.7-1.9,1.2c-0.5,0.5-0.9,1.2-1.1,2l2.8,0.4
		c0.2-0.4,0.4-0.8,0.9-1.2c0.4-0.3,1-0.5,1.8-0.5c0.7,0,1.2,0.2,1.6,0.5c0.4,0.3,0.6,0.8,0.6,1.5v0.1c0,0.3-0.1,0.5-0.3,0.6
		c-0.2,0.1-0.6,0.2-1,0.3c-0.5,0.1-1.1,0.1-1.8,0.2c-0.6,0.1-1.2,0.2-1.8,0.3c-0.6,0.1-1.1,0.4-1.6,0.7c-0.5,0.3-0.8,0.7-1.1,1.1
		c-0.3,0.5-0.4,1.1-0.4,1.8c0,0.8,0.2,1.6,0.6,2.1c0.4,0.6,0.9,1,1.5,1.3c0.7,0.3,1.4,0.4,2.2,0.4c0.7,0,1.3-0.1,1.8-0.3
		C109.4,31.4,109.8,31.2,110.1,30.9z M106.3,29.2c-0.4-0.3-0.6-0.7-0.6-1.3c0-0.4,0.1-0.7,0.3-1c0.2-0.2,0.5-0.4,0.8-0.6
		c0.4-0.1,0.8-0.2,1.2-0.3c0.2,0,0.4-0.1,0.7-0.1c0.3,0,0.6-0.1,0.8-0.1c0.3-0.1,0.5-0.1,0.8-0.2c0.2-0.1,0.4-0.1,0.5-0.2V27
		c0,0.5-0.1,0.9-0.4,1.3s-0.6,0.7-1,1c-0.4,0.2-1,0.4-1.6,0.4C107.3,29.7,106.7,29.5,106.3,29.2z M95.4,21.1h-1.8v-2.4h1.8v-3.1h3
		v3.1h2.5v2.4h-2.5v6.7c0,0.4,0.1,0.7,0.2,0.9c0.1,0.2,0.3,0.4,0.5,0.4c0.2,0.1,0.4,0.1,0.7,0.1c0.2,0,0.4,0,0.5,0
		c0.2,0,0.3-0.1,0.4-0.1l0.5,2.4c-0.2,0.1-0.4,0.1-0.7,0.2c-0.3,0.1-0.7,0.1-1.1,0.1c-0.8,0-1.4-0.1-2.1-0.3
		c-0.6-0.3-1.1-0.7-1.5-1.2c-0.4-0.5-0.5-1.2-0.5-2V21.1z M153.4,45.1c-0.5-0.3-1.1-0.6-1.7-0.7c-0.6-0.1-1.2-0.2-1.9-0.2
		c-0.9,0-1.7,0.1-2.5,0.4c-0.7,0.3-1.4,0.7-1.9,1.2c-0.5,0.5-0.9,1.2-1.1,2l2.8,0.4c0.2-0.4,0.4-0.8,0.9-1.2c0.4-0.3,1-0.5,1.8-0.5
		c0.7,0,1.2,0.2,1.6,0.5c0.4,0.3,0.6,0.8,0.6,1.5v0.1c0,0.3-0.1,0.5-0.3,0.6c-0.2,0.1-0.6,0.2-1,0.3c-0.5,0.1-1.1,0.1-1.8,0.2
		c-0.6,0.1-1.2,0.2-1.8,0.3c-0.6,0.1-1.1,0.4-1.6,0.7c-0.5,0.3-0.8,0.7-1.1,1.1c-0.3,0.5-0.4,1.1-0.4,1.8c0,0.8,0.2,1.6,0.6,2.1
		c0.4,0.6,0.9,1,1.5,1.3c0.7,0.3,1.4,0.4,2.2,0.4c0.7,0,1.3-0.1,1.8-0.3c0.5-0.2,0.9-0.4,1.3-0.7c0.3-0.3,0.6-0.6,0.8-1h0.1v1.8h2.9
		v-8.6c0-0.9-0.2-1.6-0.5-2.1C154.4,45.9,153.9,45.4,153.4,45.1z M152.1,52.6c0,0.5-0.1,0.9-0.4,1.3c-0.2,0.4-0.6,0.7-1,1
		c-0.4,0.2-1,0.4-1.6,0.4c-0.6,0-1.2-0.1-1.6-0.4c-0.4-0.3-0.6-0.7-0.6-1.3c0-0.4,0.1-0.7,0.3-1c0.2-0.2,0.5-0.4,0.8-0.6
		c0.4-0.1,0.8-0.2,1.2-0.3c0.2,0,0.4-0.1,0.7-0.1c0.3,0,0.6-0.1,0.8-0.1c0.3-0.1,0.5-0.1,0.8-0.2c0.2-0.1,0.4-0.1,0.5-0.2V52.6z
		 M168.9,46.4c0.4,0.7,0.5,1.6,0.5,2.6v8.2h-3v-7.8c0-0.9-0.2-1.5-0.7-2c-0.4-0.5-1.1-0.7-1.8-0.7c-0.5,0-1,0.1-1.4,0.3
		c-0.4,0.2-0.7,0.6-1,1c-0.2,0.4-0.3,1-0.3,1.6v7.6h-3V44.3h2.9v2.2h0.2c0.3-0.7,0.8-1.3,1.4-1.7c0.7-0.4,1.5-0.6,2.4-0.6
		c0.9,0,1.7,0.2,2.3,0.6C168,45.1,168.5,45.7,168.9,46.4z M141.9,54.7l0.5,2.4c-0.2,0.1-0.4,0.1-0.7,0.2c-0.3,0.1-0.7,0.1-1.1,0.1
		c-0.8,0-1.4-0.1-2.1-0.3c-0.6-0.3-1.1-0.7-1.5-1.2c-0.4-0.5-0.5-1.2-0.5-2v-7.2h-1.8v-2.4h1.8v-3.1h3v3.1h2.5v2.4h-2.5v6.7
		c0,0.4,0.1,0.7,0.2,0.9c0.1,0.2,0.3,0.4,0.5,0.4c0.2,0.1,0.4,0.1,0.7,0.1c0.2,0,0.4,0,0.5,0C141.7,54.8,141.8,54.8,141.9,54.7z
		 M182.8,54.7v2.5h-10.6v-1.9l6.7-8.4v-0.1h-6.4v-2.5h10.2v2.1l-6.3,8.2v0.1H182.8z M134.5,31.5c-0.6-0.3-1.1-0.7-1.5-1.2
		c-0.4-0.5-0.5-1.2-0.5-2v-7.2h-1.8v-2.4h1.8v-3.1h3v3.1h2.5v2.4h-2.5v6.7c0,0.4,0.1,0.7,0.2,0.9c0.1,0.2,0.3,0.4,0.5,0.4
		c0.2,0.1,0.4,0.1,0.7,0.1c0.2,0,0.4,0,0.5,0c0.2,0,0.3-0.1,0.4-0.1l0.5,2.4c-0.2,0.1-0.4,0.1-0.7,0.2c-0.3,0.1-0.7,0.1-1.1,0.1
		C135.8,31.8,135.1,31.7,134.5,31.5z M124.7,30.6c0.3-0.4,0.5-0.7,0.7-1h0.2v2h3V14.4h-3.1v6.4h-0.1c-0.2-0.3-0.4-0.6-0.7-1
		c-0.3-0.4-0.7-0.7-1.2-0.9c-0.5-0.3-1.1-0.4-1.9-0.4c-1,0-1.9,0.3-2.7,0.8c-0.8,0.5-1.4,1.3-1.9,2.2c-0.5,1-0.7,2.2-0.7,3.6
		c0,1.4,0.2,2.6,0.7,3.6c0.5,1,1.1,1.7,1.9,2.3c0.8,0.5,1.7,0.8,2.7,0.8c0.7,0,1.4-0.1,1.8-0.4C124,31.2,124.4,30.9,124.7,30.6z
		 M120.8,28.8c-0.5-0.4-0.8-0.9-1-1.5c-0.2-0.6-0.3-1.4-0.3-2.2c0-0.8,0.1-1.5,0.3-2.1c0.2-0.6,0.6-1.1,1-1.5c0.5-0.4,1-0.5,1.7-0.5
		c0.7,0,1.2,0.2,1.7,0.5c0.5,0.3,0.8,0.8,1,1.4c0.2,0.6,0.3,1.3,0.3,2.2c0,0.8-0.1,1.6-0.4,2.2c-0.2,0.6-0.6,1.1-1,1.5
		c-0.5,0.4-1,0.5-1.6,0.5C121.9,29.4,121.3,29.2,120.8,28.8z M119.3,46.4c0.4,0.7,0.5,1.6,0.5,2.6v8.2h-3v-7.8c0-0.9-0.2-1.5-0.7-2
		c-0.4-0.5-1.1-0.7-1.8-0.7c-0.5,0-1,0.1-1.4,0.3c-0.4,0.2-0.7,0.6-1,1c-0.2,0.4-0.3,1-0.3,1.6v7.6h-3V44.3h2.9v2.2h0.2
		c0.3-0.7,0.8-1.3,1.4-1.7c0.7-0.4,1.5-0.6,2.4-0.6c0.9,0,1.7,0.2,2.3,0.6C118.4,45.1,118.9,45.7,119.3,46.4z M132.4,51.1
		c0.6,0.6,0.9,1.3,0.9,2.2c0,0.8-0.2,1.5-0.7,2.1c-0.5,0.6-1.1,1.1-1.9,1.5c-0.8,0.3-1.8,0.5-2.9,0.5c-1.6,0-2.9-0.3-3.8-1
		c-1-0.7-1.5-1.6-1.7-2.8l3-0.3c0.1,0.6,0.4,1,0.9,1.3c0.4,0.3,1,0.4,1.7,0.4c0.7,0,1.3-0.1,1.7-0.4c0.4-0.3,0.7-0.7,0.7-1.1
		c0-0.4-0.1-0.7-0.4-0.9c-0.3-0.2-0.7-0.4-1.3-0.6l-2.2-0.5c-1.2-0.3-2.2-0.7-2.8-1.3c-0.6-0.6-0.9-1.4-0.9-2.3
		c0-0.8,0.2-1.5,0.7-2.1c0.4-0.6,1.1-1,1.8-1.4c0.8-0.3,1.7-0.5,2.7-0.5c1.5,0,2.7,0.3,3.6,1c0.9,0.6,1.4,1.5,1.6,2.6l-2.8,0.3
		c-0.1-0.3-0.2-0.5-0.4-0.8c-0.2-0.2-0.5-0.4-0.8-0.6c-0.3-0.2-0.7-0.2-1.2-0.2c-0.6,0-1.2,0.1-1.6,0.4c-0.4,0.3-0.6,0.6-0.6,1.1
		c0,0.4,0.1,0.7,0.4,0.9c0.3,0.2,0.8,0.4,1.4,0.6l2.2,0.5C130.9,50.1,131.8,50.6,132.4,51.1z"/>
	<g>
		<path d="M36.9,43.9H23.5v-4.6h13.4V25.7h4.7v13.5h13.4v4.6H41.6v13.5h-4.7V43.9z M58.4,23.5v23.2c0,5.8-1.9,10.9-5.3,14.3
			c-3.4,3.4-8.1,5.2-13.9,5.2c-5.8,0-10.5-1.9-13.9-5.2c-3.4-3.4-5.3-8.5-5.3-14.3V23.5h-4.5v23.4c0,3.5,0.6,7,1.7,9.9
			c1.1,2.9,2.7,5.4,4.8,7.6c2.1,2.1,4.6,3.7,7.6,4.8c2.9,1.1,6.2,1.7,9.6,1.7c3.5,0,6.7-0.6,9.6-1.7c2.9-1.1,5.4-2.7,7.6-4.8
			c2.1-2.1,3.7-4.6,4.8-7.6c1.1-2.9,1.7-6.4,1.7-9.9V23.5H58.4z"/>
		<rect x="15.6" y="14.5" class="st0" width="47.4" height="4.5"/>
	</g>
</g>
</svg>
